<svg width="104" height="84" viewBox="0 0 104 84" fill="none" xmlns="http://www.w3.org/2000/svg">
<g clip-path="url(#clip0_2198_1445)">
<path d="M70.5556 22.8889H68.1111C67.4389 22.8889 66.8889 23.4389 66.8889 24.1111V26.5556C66.8889 27.2278 67.4389 27.7778 68.1111 27.7778H70.5556C71.2278 27.7778 71.7778 27.2278 71.7778 26.5556V24.1111C71.7778 23.4389 71.2278 22.8889 70.5556 22.8889Z" fill="#8990A5"/>
<path d="M82 5.55556V4.2963C82 0.825778 79.1975 -2 75.75 -2H28.25C24.805 -2 22 0.825778 22 4.2963V5.55556H82Z" fill="#8990A5"/>
<rect x="22" y="8.22217" width="60" height="4.88889" fill="#8990A5"/>
<path fill-rule="evenodd" clip-rule="evenodd" d="M22 31.7037V15.3334H82V31.7037C82 35.1768 79.1975 38 75.75 38H28.25C24.805 38 22 35.1768 22 31.7037ZM30.75 30.4445H45.75C46.44 30.4445 47 29.8803 47 29.1852C47 28.4901 46.44 27.926 45.75 27.926H30.75C30.06 27.926 29.5 28.4901 29.5 29.1852C29.5 29.8803 30.06 30.4445 30.75 30.4445ZM45.75 25.4074H30.75C30.06 25.4074 29.5 24.8433 29.5 24.1482C29.5 23.4531 30.06 22.8889 30.75 22.8889H45.75C46.44 22.8889 47 23.4531 47 24.1482C47 24.8433 46.44 25.4074 45.75 25.4074ZM70.75 30.4445C72.8175 30.4445 74.5 28.7495 74.5 26.6667V24.1482C74.5 22.0654 72.8175 20.3704 70.75 20.3704H68.25C66.1825 20.3704 64.5 22.0654 64.5 24.1482V26.6667C64.5 28.7495 66.1825 30.4445 68.25 30.4445H70.75Z" fill="#8990A5"/>
<path d="M21.7441 63.7598C21.6439 64.8216 21.252 65.651 20.5684 66.248C19.8848 66.8405 18.9756 67.1367 17.8408 67.1367C17.0479 67.1367 16.3483 66.9499 15.7422 66.5762C15.1406 66.1979 14.6758 65.6624 14.3477 64.9697C14.0195 64.277 13.8486 63.4727 13.835 62.5566V61.627C13.835 60.6882 14.0013 59.861 14.334 59.1455C14.6667 58.43 15.1429 57.8786 15.7627 57.4912C16.387 57.1038 17.1071 56.9102 17.9229 56.9102C19.0212 56.9102 19.9053 57.2087 20.5752 57.8057C21.2451 58.4027 21.6348 59.2458 21.7441 60.335H20.0215C19.9395 59.6195 19.7298 59.1045 19.3926 58.79C19.0599 58.471 18.57 58.3115 17.9229 58.3115C17.1709 58.3115 16.5921 58.5872 16.1865 59.1387C15.7855 59.6855 15.5804 60.4899 15.5713 61.5518V62.4336C15.5713 63.5091 15.7627 64.3294 16.1455 64.8945C16.5329 65.4596 17.098 65.7422 17.8408 65.7422C18.5199 65.7422 19.0303 65.5895 19.3721 65.2842C19.7139 64.9788 19.9303 64.4707 20.0215 63.7598H21.7441ZM27.0078 61.1211C26.7891 61.0846 26.5635 61.0664 26.3311 61.0664C25.57 61.0664 25.0573 61.3581 24.793 61.9414V67H23.1318V59.6035H24.7178L24.7588 60.4307C25.1598 59.7881 25.7158 59.4668 26.4268 59.4668C26.6637 59.4668 26.8597 59.4987 27.0146 59.5625L27.0078 61.1211ZM31.1777 67.1367C30.125 67.1367 29.2705 66.8063 28.6143 66.1455C27.9626 65.4801 27.6367 64.596 27.6367 63.4932V63.2881C27.6367 62.5498 27.778 61.8913 28.0605 61.3125C28.3477 60.7292 28.7487 60.2757 29.2637 59.9521C29.7786 59.6286 30.3529 59.4668 30.9863 59.4668C31.9935 59.4668 32.7705 59.7881 33.3174 60.4307C33.8688 61.0732 34.1445 61.9824 34.1445 63.1582V63.8281H29.3115C29.3617 64.4388 29.5645 64.9219 29.9199 65.2773C30.2799 65.6328 30.7311 65.8105 31.2734 65.8105C32.0345 65.8105 32.6543 65.5029 33.1328 64.8877L34.0283 65.7422C33.7321 66.1842 33.3356 66.5283 32.8389 66.7744C32.3467 67.016 31.793 67.1367 31.1777 67.1367ZM30.9795 60.7998C30.5238 60.7998 30.1546 60.9593 29.8721 61.2783C29.5941 61.5973 29.4163 62.0417 29.3389 62.6113H32.5039V62.4883C32.4674 61.9323 32.3193 61.513 32.0596 61.2305C31.7998 60.9434 31.4398 60.7998 30.9795 60.7998ZM35.1289 63.2471C35.1289 62.1077 35.3932 61.194 35.9219 60.5059C36.4505 59.8132 37.1592 59.4668 38.0479 59.4668C38.8317 59.4668 39.4652 59.7402 39.9482 60.2871V56.5H41.6094V67H40.1055L40.0234 66.2344C39.5267 66.8359 38.8636 67.1367 38.0342 67.1367C37.1683 67.1367 36.4665 66.7881 35.9287 66.0908C35.3955 65.3936 35.1289 64.4456 35.1289 63.2471ZM36.79 63.3906C36.79 64.1426 36.9336 64.7305 37.2207 65.1543C37.5124 65.5736 37.9248 65.7832 38.458 65.7832C39.137 65.7832 39.6338 65.4801 39.9482 64.874V61.7158C39.6429 61.1234 39.1507 60.8271 38.4717 60.8271C37.9339 60.8271 37.5192 61.0413 37.2275 61.4697C36.9359 61.8936 36.79 62.5339 36.79 63.3906ZM45.1094 67H43.4482V59.6035H45.1094V67ZM43.3457 57.6826C43.3457 57.4274 43.4255 57.2155 43.585 57.0469C43.749 56.8783 43.9814 56.7939 44.2822 56.7939C44.583 56.7939 44.8154 56.8783 44.9795 57.0469C45.1436 57.2155 45.2256 57.4274 45.2256 57.6826C45.2256 57.9333 45.1436 58.1429 44.9795 58.3115C44.8154 58.4756 44.583 58.5576 44.2822 58.5576C43.9814 58.5576 43.749 58.4756 43.585 58.3115C43.4255 58.1429 43.3457 57.9333 43.3457 57.6826ZM49.0059 57.8057V59.6035H50.3115V60.834H49.0059V64.9629C49.0059 65.2454 49.0605 65.4505 49.1699 65.5781C49.2839 65.7012 49.4844 65.7627 49.7715 65.7627C49.9629 65.7627 50.1566 65.7399 50.3525 65.6943V66.9795C49.9743 67.0843 49.6097 67.1367 49.2588 67.1367C47.9827 67.1367 47.3447 66.4326 47.3447 65.0244V60.834H46.1279V59.6035H47.3447V57.8057H49.0059ZM62.8281 63.7598C62.7279 64.8216 62.3359 65.651 61.6523 66.248C60.9688 66.8405 60.0596 67.1367 58.9248 67.1367C58.1318 67.1367 57.4323 66.9499 56.8262 66.5762C56.2246 66.1979 55.7598 65.6624 55.4316 64.9697C55.1035 64.277 54.9326 63.4727 54.9189 62.5566V61.627C54.9189 60.6882 55.0853 59.861 55.418 59.1455C55.7507 58.43 56.2269 57.8786 56.8467 57.4912C57.471 57.1038 58.1911 56.9102 59.0068 56.9102C60.1051 56.9102 60.9893 57.2087 61.6592 57.8057C62.3291 58.4027 62.7188 59.2458 62.8281 60.335H61.1055C61.0234 59.6195 60.8138 59.1045 60.4766 58.79C60.1439 58.471 59.654 58.3115 59.0068 58.3115C58.2549 58.3115 57.6761 58.5872 57.2705 59.1387C56.8695 59.6855 56.6644 60.4899 56.6553 61.5518V62.4336C56.6553 63.5091 56.8467 64.3294 57.2295 64.8945C57.6169 65.4596 58.182 65.7422 58.9248 65.7422C59.6038 65.7422 60.1143 65.5895 60.4561 65.2842C60.7979 64.9788 61.0143 64.4707 61.1055 63.7598H62.8281ZM68.6387 67C68.5658 66.8587 68.502 66.6286 68.4473 66.3096C67.9186 66.861 67.2715 67.1367 66.5059 67.1367C65.763 67.1367 65.1569 66.9248 64.6875 66.501C64.2181 66.0771 63.9834 65.5531 63.9834 64.9287C63.9834 64.1403 64.2751 63.5365 64.8584 63.1172C65.4463 62.6934 66.2848 62.4814 67.374 62.4814H68.3926V61.9961C68.3926 61.6133 68.2855 61.3079 68.0713 61.0801C67.8571 60.8477 67.5312 60.7314 67.0938 60.7314C66.7155 60.7314 66.4056 60.8271 66.1641 61.0186C65.9225 61.2054 65.8018 61.4447 65.8018 61.7363H64.1406C64.1406 61.3307 64.2751 60.9525 64.5439 60.6016C64.8128 60.2461 65.1774 59.9681 65.6377 59.7676C66.1025 59.5671 66.6198 59.4668 67.1895 59.4668C68.0553 59.4668 68.7458 59.6855 69.2607 60.123C69.7757 60.556 70.04 61.1667 70.0537 61.9551V65.291C70.0537 65.9564 70.1471 66.4873 70.334 66.8838V67H68.6387ZM66.8135 65.8037C67.1416 65.8037 67.4492 65.724 67.7363 65.5645C68.028 65.4049 68.2467 65.1908 68.3926 64.9219V63.5273H67.4971C66.8818 63.5273 66.4193 63.6344 66.1094 63.8486C65.7995 64.0628 65.6445 64.3659 65.6445 64.7578C65.6445 65.0768 65.7493 65.332 65.959 65.5234C66.1732 65.7103 66.458 65.8037 66.8135 65.8037ZM75.666 61.1211C75.4473 61.0846 75.2217 61.0664 74.9893 61.0664C74.2282 61.0664 73.7155 61.3581 73.4512 61.9414V67H71.79V59.6035H73.376L73.417 60.4307C73.818 59.7881 74.374 59.4668 75.085 59.4668C75.3219 59.4668 75.5179 59.4987 75.6729 59.5625L75.666 61.1211ZM76.2676 63.2471C76.2676 62.1077 76.5319 61.194 77.0605 60.5059C77.5892 59.8132 78.2979 59.4668 79.1865 59.4668C79.9704 59.4668 80.6038 59.7402 81.0869 60.2871V56.5H82.748V67H81.2441L81.1621 66.2344C80.6654 66.8359 80.0023 67.1367 79.1729 67.1367C78.307 67.1367 77.6051 66.7881 77.0674 66.0908C76.5342 65.3936 76.2676 64.4456 76.2676 63.2471ZM77.9287 63.3906C77.9287 64.1426 78.0723 64.7305 78.3594 65.1543C78.651 65.5736 79.0635 65.7832 79.5967 65.7832C80.2757 65.7832 80.7725 65.4801 81.0869 64.874V61.7158C80.7816 61.1234 80.2894 60.8271 79.6104 60.8271C79.0726 60.8271 78.6579 61.0413 78.3662 61.4697C78.0745 61.8936 77.9287 62.5339 77.9287 63.3906ZM88.627 64.9902C88.627 64.694 88.5039 64.4684 88.2578 64.3135C88.0163 64.1585 87.613 64.0218 87.0479 63.9033C86.4827 63.7848 86.0111 63.6344 85.6328 63.4521C84.8034 63.0511 84.3887 62.4701 84.3887 61.709C84.3887 61.071 84.6576 60.5378 85.1953 60.1094C85.7331 59.681 86.4167 59.4668 87.2461 59.4668C88.1302 59.4668 88.8434 59.6855 89.3857 60.123C89.9326 60.5605 90.2061 61.1279 90.2061 61.8252H88.5449C88.5449 61.5062 88.4264 61.2419 88.1895 61.0322C87.9525 60.818 87.638 60.7109 87.2461 60.7109C86.8815 60.7109 86.583 60.7952 86.3506 60.9639C86.1227 61.1325 86.0088 61.3581 86.0088 61.6406C86.0088 61.8958 86.1159 62.0941 86.3301 62.2354C86.5443 62.3766 86.9772 62.5202 87.6289 62.666C88.2806 62.8073 88.791 62.9782 89.1602 63.1787C89.5339 63.3747 89.8096 63.6117 89.9873 63.8896C90.1696 64.1676 90.2607 64.5049 90.2607 64.9014C90.2607 65.5667 89.985 66.1068 89.4336 66.5215C88.8822 66.9316 88.1598 67.1367 87.2666 67.1367C86.6605 67.1367 86.1204 67.0273 85.6465 66.8086C85.1725 66.5898 84.8034 66.2891 84.5391 65.9062C84.2747 65.5234 84.1426 65.111 84.1426 64.6689H85.7559C85.7786 65.0609 85.9268 65.3639 86.2002 65.5781C86.4736 65.7878 86.8359 65.8926 87.2871 65.8926C87.7246 65.8926 88.0573 65.8105 88.2852 65.6465C88.513 65.4779 88.627 65.2591 88.627 64.9902Z" fill="#8990A5"/>
</g>
<defs>
<clipPath id="clip0_2198_1445">
<rect width="104" height="84" fill="white"/>
</clipPath>
</defs>
</svg>
