<svg width="58" height="89" viewBox="0 0 58 89" fill="none" xmlns="http://www.w3.org/2000/svg">
<path d="M24.6 15H19.5V22H24.6C26.4751 22 28 20.4303 28 18.5C28 16.5698 26.4751 15 24.6 15Z" fill="#8990A5"/>
<path fill-rule="evenodd" clip-rule="evenodd" d="M4 23C4 11.9722 12.9722 3 24 3C35.0278 3 44 11.9722 44 23C44 34.0278 35.0278 43 24 43C12.9722 43 4 34.0278 4 23ZM24.8694 32.5652C27.7459 32.5652 30.0868 30.2243 30.0868 27.3478C30.0868 25.5339 29.1581 23.9357 27.7494 23C29.1581 22.0644 30.0868 20.4643 30.0868 18.6522C30.0868 15.7757 27.7459 13.4348 24.8694 13.4348V12.5652C24.8694 12.0852 24.4798 11.6957 23.9998 11.6957C23.5198 11.6957 23.1303 12.0852 23.1303 12.5652V13.4348H21.3912V12.5652C21.3912 12.0852 21.0016 11.6957 20.5216 11.6957C20.0416 11.6957 19.652 12.0852 19.652 12.5652V13.4348H18.7825C18.3025 13.4348 17.9129 13.8243 17.9129 14.3043V31.6957C17.9129 32.1757 18.3025 32.5652 18.7825 32.5652H19.652V33.4348C19.652 33.9148 20.0416 34.3043 20.5216 34.3043C21.0016 34.3043 21.3912 33.9148 21.3912 33.4348V32.5652H23.1303V33.4348C23.1303 33.9148 23.5198 34.3043 23.9998 34.3043C24.4798 34.3043 24.8694 33.9148 24.8694 33.4348V32.5652Z" fill="#8990A5"/>
<path d="M24.6 23.5H19.5V30.5H24.6C26.4751 30.5 28 28.9303 28 27C28 25.0698 26.4751 23.5 24.6 23.5Z" fill="#8990A5"/>
<path d="M11.6064 68.7598C11.5062 69.8216 11.1143 70.651 10.4307 71.248C9.74707 71.8405 8.83789 72.1367 7.70312 72.1367C6.91016 72.1367 6.21061 71.9499 5.60449 71.5762C5.00293 71.1979 4.53809 70.6624 4.20996 69.9697C3.88184 69.277 3.71094 68.4727 3.69727 67.5566V66.627C3.69727 65.6882 3.86361 64.861 4.19629 64.1455C4.52897 63.43 5.00521 62.8786 5.625 62.4912C6.24935 62.1038 6.9694 61.9102 7.78516 61.9102C8.88346 61.9102 9.76758 62.2087 10.4375 62.8057C11.1074 63.4027 11.4971 64.2458 11.6064 65.335H9.88379C9.80176 64.6195 9.59212 64.1045 9.25488 63.79C8.9222 63.471 8.43229 63.3115 7.78516 63.3115C7.0332 63.3115 6.45443 63.5872 6.04883 64.1387C5.64779 64.6855 5.44271 65.4899 5.43359 66.5518V67.4336C5.43359 68.5091 5.625 69.3294 6.00781 69.8945C6.39518 70.4596 6.96029 70.7422 7.70312 70.7422C8.38216 70.7422 8.89258 70.5895 9.23438 70.2842C9.57617 69.9788 9.79264 69.4707 9.88379 68.7598H11.6064ZM16.8701 66.1211C16.6514 66.0846 16.4258 66.0664 16.1934 66.0664C15.4323 66.0664 14.9196 66.3581 14.6553 66.9414V72H12.9941V64.6035H14.5801L14.6211 65.4307C15.0221 64.7881 15.5781 64.4668 16.2891 64.4668C16.526 64.4668 16.722 64.4987 16.877 64.5625L16.8701 66.1211ZM20.6299 69.6211L22.1338 64.6035H23.9043L20.9648 73.1211C20.5137 74.3652 19.748 74.9873 18.668 74.9873C18.4264 74.9873 18.1598 74.9463 17.8682 74.8643V73.5791L18.1826 73.5996C18.6019 73.5996 18.9163 73.5221 19.126 73.3672C19.3402 73.2168 19.5088 72.9616 19.6318 72.6016L19.8711 71.9658L17.2734 64.6035H19.0645L20.6299 69.6211ZM31.3418 68.377C31.3418 69.5208 31.082 70.4346 30.5625 71.1182C30.043 71.7972 29.3457 72.1367 28.4707 72.1367C27.6595 72.1367 27.0101 71.8701 26.5225 71.3369V74.8438H24.8613V64.6035H26.3926L26.4609 65.3555C26.9486 64.763 27.6117 64.4668 28.4502 64.4668C29.3525 64.4668 30.0589 64.804 30.5693 65.4785C31.0843 66.1484 31.3418 67.0804 31.3418 68.2744V68.377ZM29.6875 68.2334C29.6875 67.4951 29.5394 66.9095 29.2432 66.4766C28.9515 66.0436 28.5322 65.8271 27.9854 65.8271C27.3063 65.8271 26.8187 66.1074 26.5225 66.668V69.9492C26.8232 70.5234 27.3154 70.8105 27.999 70.8105C28.5277 70.8105 28.9401 70.5986 29.2363 70.1748C29.5371 69.7464 29.6875 69.0993 29.6875 68.2334ZM34.835 62.8057V64.6035H36.1406V65.834H34.835V69.9629C34.835 70.2454 34.8896 70.4505 34.999 70.5781C35.113 70.7012 35.3135 70.7627 35.6006 70.7627C35.792 70.7627 35.9857 70.7399 36.1816 70.6943V71.9795C35.8034 72.0843 35.4388 72.1367 35.0879 72.1367C33.8118 72.1367 33.1738 71.4326 33.1738 70.0244V65.834H31.957V64.6035H33.1738V62.8057H34.835ZM36.8994 68.2334C36.8994 67.5088 37.043 66.8571 37.3301 66.2783C37.6172 65.695 38.0205 65.2484 38.54 64.9385C39.0596 64.624 39.6566 64.4668 40.3311 64.4668C41.3291 64.4668 42.138 64.7881 42.7578 65.4307C43.3822 66.0732 43.7194 66.9255 43.7695 67.9873L43.7764 68.377C43.7764 69.1061 43.6351 69.7578 43.3525 70.332C43.0745 70.9062 42.6735 71.3506 42.1494 71.665C41.6299 71.9795 41.0283 72.1367 40.3447 72.1367C39.3011 72.1367 38.4648 71.7904 37.8359 71.0977C37.2116 70.4004 36.8994 69.473 36.8994 68.3154V68.2334ZM38.5605 68.377C38.5605 69.138 38.7178 69.735 39.0322 70.168C39.3467 70.5964 39.7842 70.8105 40.3447 70.8105C40.9053 70.8105 41.3405 70.5918 41.6504 70.1543C41.9648 69.7168 42.1221 69.0765 42.1221 68.2334C42.1221 67.486 41.9603 66.8936 41.6367 66.4561C41.3177 66.0186 40.8825 65.7998 40.3311 65.7998C39.7887 65.7998 39.3581 66.0163 39.0391 66.4492C38.7201 66.8776 38.5605 67.5202 38.5605 68.377Z" fill="#8990A5"/>
</svg>
