<svg width="57" height="89" viewBox="0 0 57 89" fill="none" xmlns="http://www.w3.org/2000/svg">
<path fill-rule="evenodd" clip-rule="evenodd" d="M14.373 32.3305C14.8421 32.9084 15.005 33.6511 14.8205 34.3635L14.5771 35.3109C14.3043 36.3663 13.325 37.1052 12.1965 37.1052H9.72945L8.93263 40.1766C8.82272 40.6086 8.42235 40.8947 7.98076 40.8947C7.90226 40.8947 7.82375 40.8852 7.74328 40.8663C7.2173 40.7393 6.89936 40.2259 7.02889 39.7181L8.00627 35.9475C8.00824 35.9343 8.01216 35.921 8.01609 35.9078L8.99151 32.1391C9.09945 31.7166 9.49393 31.421 9.94337 31.421H12.4398C13.2013 31.421 13.9059 31.7526 14.373 32.3305ZM12.1943 35.2105C12.422 35.2105 12.6163 35.0627 12.6712 34.8543L12.9166 33.905C12.9676 33.7099 12.8812 33.5659 12.8282 33.4977C12.7733 33.4295 12.6496 33.3158 12.4416 33.3158H10.7106L10.2199 35.2105H12.1943Z" fill="#8990A5"/>
<path fill-rule="evenodd" clip-rule="evenodd" d="M19.4273 36.0465C19.6512 35.7281 20.0538 35.5602 20.4662 35.6606C20.9945 35.7899 21.3126 36.3148 21.181 36.83L20.1991 40.6897C20.0891 41.1297 19.6885 41.4211 19.2466 41.4211C19.168 41.4211 19.0895 41.4114 19.009 41.3921C18.9362 41.3738 18.8737 41.3383 18.8113 41.303C18.8012 41.2973 18.7912 41.2916 18.7812 41.286C18.5219 41.369 18.2489 41.4211 17.9642 41.4211H16.5659C15.7214 41.4211 14.9417 41.0467 14.4213 40.3905C13.9009 39.7383 13.7202 38.9007 13.9244 38.096L14.054 37.5846C14.3467 36.4364 15.3934 35.6316 16.6012 35.6316H17.9995C18.518 35.6316 19.0031 35.7879 19.4273 36.0465ZM15.9689 39.2056C16.1142 39.387 16.3322 39.4913 16.5659 39.4913H17.9642C18.2686 39.4913 18.5318 39.2906 18.6044 39.0011L18.734 38.4877C18.793 38.2639 18.7419 38.0304 18.5966 37.849C18.4512 37.6676 18.2333 37.5634 17.9995 37.5634H16.6013C16.2968 37.5634 16.0337 37.7641 15.961 38.0535L15.8314 38.5669C15.7725 38.7907 15.8235 39.0242 15.9689 39.2056Z" fill="#8990A5"/>
<path fill-rule="evenodd" clip-rule="evenodd" d="M37.0046 32.3305C37.4736 32.9084 37.6365 33.6511 37.4521 34.3635L37.2067 35.3109C36.9339 36.3663 35.9546 37.1052 34.8261 37.1052H32.3591L31.5642 40.1766C31.4543 40.6086 31.0539 40.8947 30.6124 40.8947C30.5338 40.8947 30.4553 40.8852 30.3749 40.8663C29.8489 40.7393 29.531 40.2259 29.6605 39.7181L30.6379 35.9475C30.6398 35.9343 30.6438 35.921 30.6477 35.9078L31.6231 32.1391C31.731 31.7166 32.1255 31.421 32.575 31.421H35.0714C35.8309 31.421 36.5355 31.7526 37.0046 32.3305ZM34.8277 35.2105C35.0534 35.2105 35.2496 35.0646 35.3026 34.8543L35.5479 33.905C35.599 33.7099 35.5126 33.5659 35.4596 33.4977C35.4047 33.4295 35.281 33.3158 35.073 33.3158H33.342L32.8513 35.2105H34.8277Z" fill="#8990A5"/>
<path fill-rule="evenodd" clip-rule="evenodd" d="M42.583 36.0465C42.8069 35.7281 43.2095 35.5602 43.6239 35.6606C44.1522 35.7899 44.4703 36.3148 44.3388 36.83L43.3568 40.6897C43.2468 41.1297 42.8462 41.4211 42.4043 41.4211C42.3258 41.4211 42.2472 41.4114 42.1667 41.3902C42.0939 41.3719 42.0314 41.3364 41.969 41.301C41.9589 41.2953 41.9489 41.2897 41.9389 41.284C41.6796 41.367 41.4067 41.4191 41.1219 41.4191H39.7236C38.8791 41.4191 38.0994 41.0428 37.579 40.3905C37.0586 39.7383 36.8779 38.9007 37.0821 38.096L37.2118 37.5846C37.5044 36.4364 38.5511 35.6316 39.7589 35.6316H41.1572C41.6737 35.6316 42.1588 35.7879 42.583 36.0465ZM39.1267 39.2056C39.272 39.387 39.49 39.4913 39.7237 39.4913H41.122C41.4264 39.4913 41.6896 39.2906 41.7622 39.0011L41.8919 38.4877C41.9508 38.2639 41.8997 38.0304 41.7544 37.849C41.6091 37.6676 41.3911 37.5634 41.1574 37.5634H39.7591C39.4547 37.5634 39.1915 37.7641 39.1188 38.0535L38.9892 38.5669C38.9303 38.7907 38.9814 39.0242 39.1267 39.2056Z" fill="#8990A5"/>
<path d="M27.3771 35.4598L25.5005 37.7357L24.0539 35.5447C23.7509 35.0907 23.1429 34.9703 22.6992 35.2703C22.2515 35.5723 22.1284 36.1842 22.4275 36.6382L24.1946 39.3148L22.49 41.3814C22.144 41.7998 22.2007 42.4236 22.6132 42.773C22.7969 42.925 23.0198 43 23.2407 43C23.5202 43 23.7978 42.8796 23.9913 42.6447L28.8784 36.7231C29.2245 36.3046 29.1678 35.6809 28.7553 35.3315C28.3389 34.988 27.7231 35.0394 27.3771 35.4598Z" fill="#8990A5"/>
<path d="M48.4069 31.4502C47.9077 31.3213 47.4121 31.632 47.2905 32.1398L45.4483 39.7182C45.3267 40.2259 45.6251 40.7393 46.1188 40.8663C46.1944 40.8852 46.2681 40.8947 46.3418 40.8947C46.7563 40.8947 47.1321 40.6086 47.2353 40.1767L49.0775 32.5983C49.201 32.0924 48.9025 31.5771 48.4069 31.4502Z" fill="#8990A5"/>
<path fill-rule="evenodd" clip-rule="evenodd" d="M39.9908 14.592L39.2879 17.4334C38.5964 20.225 36.1229 22.1729 33.2713 22.1729H29.5629L27.8436 29.1155C27.7391 29.543 27.3573 29.8421 26.9222 29.8421H22.1728C21.8802 29.8421 21.6029 29.706 21.4224 29.474C21.2419 29.242 21.1792 28.9371 21.2495 28.6515L21.9049 26.0075H17.4233C17.1422 26.0075 16.8724 25.8829 16.6938 25.6643C16.5152 25.4458 16.4393 25.1582 16.4886 24.8782L20.2882 3.78801C20.3718 3.33169 20.7651 3 21.2229 3H31.9756C33.3701 3 34.6923 3.60778 35.6061 4.67188C36.5199 5.73598 36.9303 7.14327 36.7327 8.53523L36.6966 8.78447C37.6484 8.865 38.5185 9.33474 39.1625 10.1668C40.0744 11.346 40.3841 12.9987 39.9908 14.592ZM27.9009 20.9823C28.0054 20.5547 28.3873 20.2556 28.8223 20.2556V20.2576H33.2735C35.2493 20.2576 36.9648 18.9059 37.4435 16.9713L38.1464 14.1299C38.3972 13.1195 38.211 12.0554 37.6658 11.3479C37.4283 11.0411 37.0218 10.6749 36.4309 10.6711L36.2676 11.8234C35.7432 15.5372 32.5421 18.3383 28.8223 18.3383H25.7656L24.0463 25.2809L23.3909 27.9248H26.1797L27.9009 20.9823Z" fill="#8990A5"/>
<path d="M9.14648 68.3018V72H7.41699V62.0469H11.2246C12.3366 62.0469 13.2184 62.3363 13.8701 62.915C14.5264 63.4938 14.8545 64.2594 14.8545 65.2119C14.8545 66.1872 14.5332 66.946 13.8906 67.4883C13.2526 68.0306 12.3571 68.3018 11.2041 68.3018H9.14648ZM9.14648 66.9141H11.2246C11.8398 66.9141 12.3092 66.7705 12.6328 66.4834C12.9564 66.1917 13.1182 65.7725 13.1182 65.2256C13.1182 64.6878 12.9541 64.2594 12.626 63.9404C12.2979 63.6169 11.8467 63.4505 11.2725 63.4414H9.14648V66.9141ZM20.5488 72C20.4759 71.8587 20.4121 71.6286 20.3574 71.3096C19.8288 71.861 19.1816 72.1367 18.416 72.1367C17.6732 72.1367 17.0671 71.9248 16.5977 71.501C16.1283 71.0771 15.8936 70.5531 15.8936 69.9287C15.8936 69.1403 16.1852 68.5365 16.7686 68.1172C17.3564 67.6934 18.195 67.4814 19.2842 67.4814H20.3027V66.9961C20.3027 66.6133 20.1956 66.3079 19.9814 66.0801C19.7673 65.8477 19.4414 65.7314 19.0039 65.7314C18.6257 65.7314 18.3158 65.8271 18.0742 66.0186C17.8327 66.2054 17.7119 66.4447 17.7119 66.7363H16.0508C16.0508 66.3307 16.1852 65.9525 16.4541 65.6016C16.723 65.2461 17.0876 64.9681 17.5479 64.7676C18.0127 64.5671 18.5299 64.4668 19.0996 64.4668C19.9655 64.4668 20.6559 64.6855 21.1709 65.123C21.6859 65.556 21.9502 66.1667 21.9639 66.9551V70.291C21.9639 70.9564 22.0573 71.4873 22.2441 71.8838V72H20.5488ZM18.7236 70.8037C19.0518 70.8037 19.3594 70.724 19.6465 70.5645C19.9382 70.4049 20.1569 70.1908 20.3027 69.9219V68.5273H19.4072C18.792 68.5273 18.3294 68.6344 18.0195 68.8486C17.7096 69.0628 17.5547 69.3659 17.5547 69.7578C17.5547 70.0768 17.6595 70.332 17.8691 70.5234C18.0833 70.7103 18.3682 70.8037 18.7236 70.8037ZM26.1816 69.6211L27.6855 64.6035H29.4561L26.5166 73.1211C26.0654 74.3652 25.2998 74.9873 24.2197 74.9873C23.9782 74.9873 23.7116 74.9463 23.4199 74.8643V73.5791L23.7344 73.5996C24.1536 73.5996 24.4681 73.5221 24.6777 73.3672C24.8919 73.2168 25.0605 72.9616 25.1836 72.6016L25.4229 71.9658L22.8252 64.6035H24.6162L26.1816 69.6211ZM32.3066 68.3018V72H30.5771V62.0469H34.3848C35.4967 62.0469 36.3786 62.3363 37.0303 62.915C37.6865 63.4938 38.0146 64.2594 38.0146 65.2119C38.0146 66.1872 37.6934 66.946 37.0508 67.4883C36.4128 68.0306 35.5173 68.3018 34.3643 68.3018H32.3066ZM32.3066 66.9141H34.3848C35 66.9141 35.4694 66.7705 35.793 66.4834C36.1165 66.1917 36.2783 65.7725 36.2783 65.2256C36.2783 64.6878 36.1143 64.2594 35.7861 63.9404C35.458 63.6169 35.0068 63.4505 34.4326 63.4414H32.3066V66.9141ZM43.709 72C43.6361 71.8587 43.5723 71.6286 43.5176 71.3096C42.9889 71.861 42.3418 72.1367 41.5762 72.1367C40.8333 72.1367 40.2272 71.9248 39.7578 71.501C39.2884 71.0771 39.0537 70.5531 39.0537 69.9287C39.0537 69.1403 39.3454 68.5365 39.9287 68.1172C40.5166 67.6934 41.3551 67.4814 42.4443 67.4814H43.4629V66.9961C43.4629 66.6133 43.3558 66.3079 43.1416 66.0801C42.9274 65.8477 42.6016 65.7314 42.1641 65.7314C41.7858 65.7314 41.4759 65.8271 41.2344 66.0186C40.9928 66.2054 40.8721 66.4447 40.8721 66.7363H39.2109C39.2109 66.3307 39.3454 65.9525 39.6143 65.6016C39.8831 65.2461 40.2477 64.9681 40.708 64.7676C41.1729 64.5671 41.6901 64.4668 42.2598 64.4668C43.1257 64.4668 43.8161 64.6855 44.3311 65.123C44.846 65.556 45.1104 66.1667 45.124 66.9551V70.291C45.124 70.9564 45.2174 71.4873 45.4043 71.8838V72H43.709ZM41.8838 70.8037C42.2119 70.8037 42.5195 70.724 42.8066 70.5645C43.0983 70.4049 43.3171 70.1908 43.4629 69.9219V68.5273H42.5674C41.9521 68.5273 41.4896 68.6344 41.1797 68.8486C40.8698 69.0628 40.7148 69.3659 40.7148 69.7578C40.7148 70.0768 40.8197 70.332 41.0293 70.5234C41.2435 70.7103 41.5283 70.8037 41.8838 70.8037ZM48.6309 72H46.9697V61.5H48.6309V72Z" fill="#8990A5"/>
</svg>
