<svg width="111" height="89" viewBox="0 0 111 89" fill="none" xmlns="http://www.w3.org/2000/svg">
<path d="M41.7146 3L47.9765 13.4857L37 23.9546H55.9773L57.7611 19.7588H47.2902L53.6261 13.4579L49.9252 7.19453H67.1915L52.0339 43H57.2275L74.1762 3H41.7146Z" fill="#8990A5"/>
<path d="M21.5723 63.4414H18.4688V72H16.7529V63.4414H13.6768V62.0469H21.5723V63.4414ZM26.1455 66.1211C25.9268 66.0846 25.7012 66.0664 25.4688 66.0664C24.7077 66.0664 24.195 66.3581 23.9307 66.9414V72H22.2695V64.6035H23.8555L23.8965 65.4307C24.2975 64.7881 24.8535 64.4668 25.5645 64.4668C25.8014 64.4668 25.9974 64.4987 26.1523 64.5625L26.1455 66.1211ZM31.4092 72C31.3363 71.8587 31.2725 71.6286 31.2178 71.3096C30.6891 71.861 30.042 72.1367 29.2764 72.1367C28.5335 72.1367 27.9274 71.9248 27.458 71.501C26.9886 71.0771 26.7539 70.5531 26.7539 69.9287C26.7539 69.1403 27.0456 68.5365 27.6289 68.1172C28.2168 67.6934 29.0553 67.4814 30.1445 67.4814H31.1631V66.9961C31.1631 66.6133 31.056 66.3079 30.8418 66.0801C30.6276 65.8477 30.3018 65.7314 29.8643 65.7314C29.486 65.7314 29.1761 65.8271 28.9346 66.0186C28.693 66.2054 28.5723 66.4447 28.5723 66.7363H26.9111C26.9111 66.3307 27.0456 65.9525 27.3145 65.6016C27.5833 65.2461 27.9479 64.9681 28.4082 64.7676C28.873 64.5671 29.3903 64.4668 29.96 64.4668C30.8258 64.4668 31.5163 64.6855 32.0312 65.123C32.5462 65.556 32.8105 66.1667 32.8242 66.9551V70.291C32.8242 70.9564 32.9176 71.4873 33.1045 71.8838V72H31.4092ZM29.584 70.8037C29.9121 70.8037 30.2197 70.724 30.5068 70.5645C30.7985 70.4049 31.0173 70.1908 31.1631 69.9219V68.5273H30.2676C29.6523 68.5273 29.1898 68.6344 28.8799 68.8486C28.57 69.0628 28.415 69.3659 28.415 69.7578C28.415 70.0768 28.5199 70.332 28.7295 70.5234C28.9437 70.7103 29.2285 70.8037 29.584 70.8037ZM36.1055 64.6035L36.1533 65.458C36.7002 64.7972 37.418 64.4668 38.3066 64.4668C39.847 64.4668 40.6309 65.3486 40.6582 67.1123V72H38.9971V67.208C38.9971 66.7386 38.8945 66.3923 38.6895 66.1689C38.4889 65.9411 38.1585 65.8271 37.6982 65.8271C37.0283 65.8271 36.5293 66.1302 36.2012 66.7363V72H34.54V64.6035H36.1055ZM46.5029 69.9902C46.5029 69.694 46.3799 69.4684 46.1338 69.3135C45.8923 69.1585 45.4889 69.0218 44.9238 68.9033C44.3587 68.7848 43.887 68.6344 43.5088 68.4521C42.6794 68.0511 42.2646 67.4701 42.2646 66.709C42.2646 66.071 42.5335 65.5378 43.0713 65.1094C43.609 64.681 44.2926 64.4668 45.1221 64.4668C46.0062 64.4668 46.7194 64.6855 47.2617 65.123C47.8086 65.5605 48.082 66.1279 48.082 66.8252H46.4209C46.4209 66.5062 46.3024 66.2419 46.0654 66.0322C45.8285 65.818 45.514 65.7109 45.1221 65.7109C44.7575 65.7109 44.459 65.7952 44.2266 65.9639C43.9987 66.1325 43.8848 66.3581 43.8848 66.6406C43.8848 66.8958 43.9919 67.0941 44.2061 67.2354C44.4202 67.3766 44.8532 67.5202 45.5049 67.666C46.1566 67.8073 46.667 67.9782 47.0361 68.1787C47.4098 68.3747 47.6855 68.6117 47.8633 68.8896C48.0456 69.1676 48.1367 69.5049 48.1367 69.9014C48.1367 70.5667 47.861 71.1068 47.3096 71.5215C46.7581 71.9316 46.0358 72.1367 45.1426 72.1367C44.5365 72.1367 43.9964 72.0273 43.5225 71.8086C43.0485 71.5898 42.6794 71.2891 42.415 70.9062C42.1507 70.5234 42.0186 70.111 42.0186 69.6689H43.6318C43.6546 70.0609 43.8027 70.3639 44.0762 70.5781C44.3496 70.7878 44.7119 70.8926 45.1631 70.8926C45.6006 70.8926 45.9333 70.8105 46.1611 70.6465C46.389 70.4779 46.5029 70.2591 46.5029 69.9902ZM50.1738 72V65.834H49.0459V64.6035H50.1738V63.9268C50.1738 63.1064 50.4017 62.473 50.8574 62.0264C51.3132 61.5798 51.9512 61.3564 52.7715 61.3564C53.0632 61.3564 53.373 61.3975 53.7012 61.4795L53.6602 62.7783C53.4779 62.7419 53.266 62.7236 53.0244 62.7236C52.2314 62.7236 51.835 63.1315 51.835 63.9473V64.6035H53.3389V65.834H51.835V72H50.1738ZM57.6455 72.1367C56.5928 72.1367 55.7383 71.8063 55.082 71.1455C54.4303 70.4801 54.1045 69.596 54.1045 68.4932V68.2881C54.1045 67.5498 54.2458 66.8913 54.5283 66.3125C54.8154 65.7292 55.2165 65.2757 55.7314 64.9521C56.2464 64.6286 56.8206 64.4668 57.4541 64.4668C58.4613 64.4668 59.2383 64.7881 59.7852 65.4307C60.3366 66.0732 60.6123 66.9824 60.6123 68.1582V68.8281H55.7793C55.8294 69.4388 56.0322 69.9219 56.3877 70.2773C56.7477 70.6328 57.1989 70.8105 57.7412 70.8105C58.5023 70.8105 59.1221 70.5029 59.6006 69.8877L60.4961 70.7422C60.1999 71.1842 59.8034 71.5283 59.3066 71.7744C58.8145 72.016 58.2607 72.1367 57.6455 72.1367ZM57.4473 65.7998C56.9915 65.7998 56.6224 65.9593 56.3398 66.2783C56.0618 66.5973 55.8841 67.0417 55.8066 67.6113H58.9717V67.4883C58.9352 66.9323 58.7871 66.513 58.5273 66.2305C58.2676 65.9434 57.9076 65.7998 57.4473 65.7998ZM65.7803 66.1211C65.5615 66.0846 65.3359 66.0664 65.1035 66.0664C64.3424 66.0664 63.8298 66.3581 63.5654 66.9414V72H61.9043V64.6035H63.4902L63.5312 65.4307C63.9323 64.7881 64.4883 64.4668 65.1992 64.4668C65.4362 64.4668 65.6322 64.4987 65.7871 64.5625L65.7803 66.1211ZM74.7969 69.5391L76.3281 62.0469H78.0439L75.7471 72H74.0928L72.1992 64.7334L70.2646 72H68.6035L66.3066 62.0469H68.0225L69.5674 69.5254L71.4678 62.0469H72.917L74.7969 69.5391ZM80.915 72H79.2539V64.6035H80.915V72ZM79.1514 62.6826C79.1514 62.4274 79.2311 62.2155 79.3906 62.0469C79.5547 61.8783 79.7871 61.7939 80.0879 61.7939C80.3887 61.7939 80.6211 61.8783 80.7852 62.0469C80.9492 62.2155 81.0312 62.4274 81.0312 62.6826C81.0312 62.9333 80.9492 63.1429 80.7852 63.3115C80.6211 63.4756 80.3887 63.5576 80.0879 63.5576C79.7871 63.5576 79.5547 63.4756 79.3906 63.3115C79.2311 63.1429 79.1514 62.9333 79.1514 62.6826ZM86.876 69.9902C86.876 69.694 86.7529 69.4684 86.5068 69.3135C86.2653 69.1585 85.862 69.0218 85.2969 68.9033C84.7318 68.7848 84.2601 68.6344 83.8818 68.4521C83.0524 68.0511 82.6377 67.4701 82.6377 66.709C82.6377 66.071 82.9066 65.5378 83.4443 65.1094C83.9821 64.681 84.6657 64.4668 85.4951 64.4668C86.3792 64.4668 87.0924 64.6855 87.6348 65.123C88.1816 65.5605 88.4551 66.1279 88.4551 66.8252H86.7939C86.7939 66.5062 86.6755 66.2419 86.4385 66.0322C86.2015 65.818 85.887 65.7109 85.4951 65.7109C85.1305 65.7109 84.832 65.7952 84.5996 65.9639C84.3717 66.1325 84.2578 66.3581 84.2578 66.6406C84.2578 66.8958 84.3649 67.0941 84.5791 67.2354C84.7933 67.3766 85.2262 67.5202 85.8779 67.666C86.5296 67.8073 87.04 67.9782 87.4092 68.1787C87.7829 68.3747 88.0586 68.6117 88.2363 68.8896C88.4186 69.1676 88.5098 69.5049 88.5098 69.9014C88.5098 70.5667 88.234 71.1068 87.6826 71.5215C87.1312 71.9316 86.4089 72.1367 85.5156 72.1367C84.9095 72.1367 84.3695 72.0273 83.8955 71.8086C83.4215 71.5898 83.0524 71.2891 82.7881 70.9062C82.5238 70.5234 82.3916 70.111 82.3916 69.6689H84.0049C84.0277 70.0609 84.1758 70.3639 84.4492 70.5781C84.7227 70.7878 85.085 70.8926 85.5361 70.8926C85.9736 70.8926 86.3063 70.8105 86.5342 70.6465C86.762 70.4779 86.876 70.2591 86.876 69.9902ZM93.2197 72.1367C92.167 72.1367 91.3125 71.8063 90.6562 71.1455C90.0046 70.4801 89.6787 69.596 89.6787 68.4932V68.2881C89.6787 67.5498 89.82 66.8913 90.1025 66.3125C90.3896 65.7292 90.7907 65.2757 91.3057 64.9521C91.8206 64.6286 92.3949 64.4668 93.0283 64.4668C94.0355 64.4668 94.8125 64.7881 95.3594 65.4307C95.9108 66.0732 96.1865 66.9824 96.1865 68.1582V68.8281H91.3535C91.4036 69.4388 91.6064 69.9219 91.9619 70.2773C92.3219 70.6328 92.7731 70.8105 93.3154 70.8105C94.0765 70.8105 94.6963 70.5029 95.1748 69.8877L96.0703 70.7422C95.7741 71.1842 95.3776 71.5283 94.8809 71.7744C94.3887 72.016 93.835 72.1367 93.2197 72.1367ZM93.0215 65.7998C92.5658 65.7998 92.1966 65.9593 91.9141 66.2783C91.6361 66.5973 91.4583 67.0417 91.3809 67.6113H94.5459V67.4883C94.5094 66.9323 94.3613 66.513 94.1016 66.2305C93.8418 65.9434 93.4818 65.7998 93.0215 65.7998Z" fill="#8990A5"/>
</svg>
