<svg width="119" height="84" viewBox="0 0 119 84" fill="none" xmlns="http://www.w3.org/2000/svg">
<g clip-path="url(#clip0_2198_1426)">
<path d="M65.8181 -2H62.909L59.6363 22.3636H59.5453L55.9544 -2H40.0908L36.4999 22.3636H36.409L33.1363 -2H19.3635L27.7272 36.7273H44.3635L47.9544 11.6364H48.0453L51.6363 36.7273H68.2726L69.0908 32.8636C66.9544 30.5909 65.8181 27.5909 65.8181 23.7273V-2Z" fill="#8990A5"/>
<path d="M65.8181 -2V23.7273C65.8181 27.5455 66.9545 30.5909 69.0908 32.8636L76.6363 -2H65.8181V-2Z" fill="#8990A5"/>
<path d="M87.3181 -2V23.0909C87.3181 26.1364 85.8635 27.3182 84.2726 27.3182C82.6817 27.3182 81.2272 26.1364 81.2272 23.0909V-2H77.9544L70.2272 33.8182C73.3635 36.4091 78.0908 37.7727 84.2726 37.7727C95.9544 37.7727 102.682 33.0909 102.682 23.7727V-1.95455H87.3181V-2Z" fill="#8990A5"/>
<path d="M9.27261 -2H6.99988L15.2272 36.7273H17.4999L9.27261 -2Z" fill="#8990A5"/>
<path d="M21.4544 36.7273H23.7272L15.4999 -2H13.2272L21.4544 36.7273Z" fill="#8990A5"/>
<path d="M107.273 -0.13633C107.273 -0.409058 107.136 -0.499967 106.863 -0.499967C106.682 -0.499967 106.454 -0.409058 106.454 -0.181785C106.454 0.0909424 106.682 0.136397 106.909 0.181852C107.273 0.272761 107.863 0.409124 107.863 0.909124C107.863 1.54549 107.318 1.77276 106.773 1.77276C106.182 1.77276 105.773 1.54549 105.773 0.909124H106.318C106.318 1.18185 106.454 1.36367 106.727 1.36367C106.954 1.36367 107.227 1.31822 107.227 1.04549C107.227 0.727306 106.863 0.727306 106.636 0.681852C106.273 0.590942 105.773 0.454579 105.773 -0.0454212C105.773 -0.63633 106.318 -0.909058 106.863 -0.909058C107.363 -0.909058 107.727 -0.63633 107.727 -0.13633H107.273Z" fill="#8990A5"/>
<path d="M109.909 1.68181H109.454L108.773 -0.500011V1.68181H108.227V-0.863647H109.136L109.682 0.999989L110.273 -0.863647H111.136V1.68181H110.636V-0.500011L109.909 1.68181Z" fill="#8990A5"/>
<path d="M22.0654 64.5391L23.5967 57.0469H25.3125L23.0156 67H21.3613L19.4678 59.7334L17.5332 67H15.8721L13.5752 57.0469H15.291L16.8359 64.5254L18.7363 57.0469H20.1855L22.0654 64.5391ZM29.4551 67.1367C28.4023 67.1367 27.5479 66.8063 26.8916 66.1455C26.2399 65.4801 25.9141 64.596 25.9141 63.4932V63.2881C25.9141 62.5498 26.0553 61.8913 26.3379 61.3125C26.625 60.7292 27.026 60.2757 27.541 59.9521C28.056 59.6286 28.6302 59.4668 29.2637 59.4668C30.2708 59.4668 31.0479 59.7881 31.5947 60.4307C32.1462 61.0732 32.4219 61.9824 32.4219 63.1582V63.8281H27.5889C27.639 64.4388 27.8418 64.9219 28.1973 65.2773C28.5573 65.6328 29.0085 65.8105 29.5508 65.8105C30.3118 65.8105 30.9316 65.5029 31.4102 64.8877L32.3057 65.7422C32.0094 66.1842 31.613 66.5283 31.1162 66.7744C30.624 67.016 30.0703 67.1367 29.4551 67.1367ZM29.2568 60.7998C28.8011 60.7998 28.432 60.9593 28.1494 61.2783C27.8714 61.5973 27.6937 62.0417 27.6162 62.6113H30.7812V62.4883C30.7448 61.9323 30.5967 61.513 30.3369 61.2305C30.0771 60.9434 29.7171 60.7998 29.2568 60.7998ZM37.8633 64.9902C37.8633 64.694 37.7402 64.4684 37.4941 64.3135C37.2526 64.1585 36.8493 64.0218 36.2842 63.9033C35.7191 63.7848 35.2474 63.6344 34.8691 63.4521C34.0397 63.0511 33.625 62.4701 33.625 61.709C33.625 61.071 33.8939 60.5378 34.4316 60.1094C34.9694 59.681 35.653 59.4668 36.4824 59.4668C37.3665 59.4668 38.0798 59.6855 38.6221 60.123C39.1689 60.5605 39.4424 61.1279 39.4424 61.8252H37.7812C37.7812 61.5062 37.6628 61.2419 37.4258 61.0322C37.1888 60.818 36.8743 60.7109 36.4824 60.7109C36.1178 60.7109 35.8193 60.7952 35.5869 60.9639C35.359 61.1325 35.2451 61.3581 35.2451 61.6406C35.2451 61.8958 35.3522 62.0941 35.5664 62.2354C35.7806 62.3766 36.2135 62.5202 36.8652 62.666C37.5169 62.8073 38.0273 62.9782 38.3965 63.1787C38.7702 63.3747 39.0459 63.6117 39.2236 63.8896C39.4059 64.1676 39.4971 64.5049 39.4971 64.9014C39.4971 65.5667 39.2214 66.1068 38.6699 66.5215C38.1185 66.9316 37.3962 67.1367 36.5029 67.1367C35.8968 67.1367 35.3568 67.0273 34.8828 66.8086C34.4089 66.5898 34.0397 66.2891 33.7754 65.9062C33.5111 65.5234 33.3789 65.111 33.3789 64.6689H34.9922C35.015 65.0609 35.1631 65.3639 35.4365 65.5781C35.71 65.7878 36.0723 65.8926 36.5234 65.8926C36.9609 65.8926 37.2936 65.8105 37.5215 65.6465C37.7493 65.4779 37.8633 65.2591 37.8633 64.9902ZM43.0312 57.8057V59.6035H44.3369V60.834H43.0312V64.9629C43.0312 65.2454 43.0859 65.4505 43.1953 65.5781C43.3092 65.7012 43.5098 65.7627 43.7969 65.7627C43.9883 65.7627 44.182 65.7399 44.3779 65.6943V66.9795C43.9997 67.0843 43.6351 67.1367 43.2842 67.1367C42.0081 67.1367 41.3701 66.4326 41.3701 65.0244V60.834H40.1533V59.6035H41.3701V57.8057H43.0312ZM48.8691 67.1367C47.8164 67.1367 46.9619 66.8063 46.3057 66.1455C45.654 65.4801 45.3281 64.596 45.3281 63.4932V63.2881C45.3281 62.5498 45.4694 61.8913 45.752 61.3125C46.0391 60.7292 46.4401 60.2757 46.9551 59.9521C47.4701 59.6286 48.0443 59.4668 48.6777 59.4668C49.6849 59.4668 50.4619 59.7881 51.0088 60.4307C51.5602 61.0732 51.8359 61.9824 51.8359 63.1582V63.8281H47.0029C47.0531 64.4388 47.2559 64.9219 47.6113 65.2773C47.9714 65.6328 48.4225 65.8105 48.9648 65.8105C49.7259 65.8105 50.3457 65.5029 50.8242 64.8877L51.7197 65.7422C51.4235 66.1842 51.027 66.5283 50.5303 66.7744C50.0381 67.016 49.4844 67.1367 48.8691 67.1367ZM48.6709 60.7998C48.2152 60.7998 47.846 60.9593 47.5635 61.2783C47.2855 61.5973 47.1077 62.0417 47.0303 62.6113H50.1953V62.4883C50.1589 61.9323 50.0107 61.513 49.751 61.2305C49.4912 60.9434 49.1312 60.7998 48.6709 60.7998ZM57.0039 61.1211C56.7852 61.0846 56.5596 61.0664 56.3271 61.0664C55.5661 61.0664 55.0534 61.3581 54.7891 61.9414V67H53.1279V59.6035H54.7139L54.7549 60.4307C55.1559 59.7881 55.7119 59.4668 56.4229 59.4668C56.6598 59.4668 56.8558 59.4987 57.0107 59.5625L57.0039 61.1211ZM59.5947 59.6035L59.6426 60.458C60.1895 59.7972 60.9072 59.4668 61.7959 59.4668C63.3363 59.4668 64.1201 60.3486 64.1475 62.1123V67H62.4863V62.208C62.4863 61.7386 62.3838 61.3923 62.1787 61.1689C61.9782 60.9411 61.6478 60.8271 61.1875 60.8271C60.5176 60.8271 60.0186 61.1302 59.6904 61.7363V67H58.0293V59.6035H59.5947ZM76.7734 57.0469V63.6982C76.7734 64.7555 76.4339 65.5941 75.7549 66.2139C75.0804 66.8291 74.1803 67.1367 73.0547 67.1367C71.9154 67.1367 71.0107 66.8337 70.3408 66.2275C69.6709 65.6169 69.3359 64.7715 69.3359 63.6914V57.0469H71.0586V63.7051C71.0586 64.3704 71.2272 64.8786 71.5645 65.2295C71.9017 65.5804 72.3984 65.7559 73.0547 65.7559C74.3854 65.7559 75.0508 65.054 75.0508 63.6504V57.0469H76.7734ZM80.0068 59.6035L80.0547 60.458C80.6016 59.7972 81.3193 59.4668 82.208 59.4668C83.7484 59.4668 84.5322 60.3486 84.5596 62.1123V67H82.8984V62.208C82.8984 61.7386 82.7959 61.3923 82.5908 61.1689C82.3903 60.9411 82.0599 60.8271 81.5996 60.8271C80.9297 60.8271 80.4307 61.1302 80.1025 61.7363V67H78.4414V59.6035H80.0068ZM88.0254 67H86.3643V59.6035H88.0254V67ZM86.2617 57.6826C86.2617 57.4274 86.3415 57.2155 86.501 57.0469C86.665 56.8783 86.8975 56.7939 87.1982 56.7939C87.499 56.7939 87.7314 56.8783 87.8955 57.0469C88.0596 57.2155 88.1416 57.4274 88.1416 57.6826C88.1416 57.9333 88.0596 58.1429 87.8955 58.3115C87.7314 58.4756 87.499 58.5576 87.1982 58.5576C86.8975 58.5576 86.665 58.4756 86.501 58.3115C86.3415 58.1429 86.2617 57.9333 86.2617 57.6826ZM89.5293 63.2334C89.5293 62.5088 89.6729 61.8571 89.96 61.2783C90.2471 60.695 90.6504 60.2484 91.1699 59.9385C91.6895 59.624 92.2865 59.4668 92.9609 59.4668C93.959 59.4668 94.7679 59.7881 95.3877 60.4307C96.012 61.0732 96.3493 61.9255 96.3994 62.9873L96.4062 63.377C96.4062 64.1061 96.265 64.7578 95.9824 65.332C95.7044 65.9062 95.3034 66.3506 94.7793 66.665C94.2598 66.9795 93.6582 67.1367 92.9746 67.1367C91.931 67.1367 91.0947 66.7904 90.4658 66.0977C89.8415 65.4004 89.5293 64.473 89.5293 63.3154V63.2334ZM91.1904 63.377C91.1904 64.138 91.3477 64.735 91.6621 65.168C91.9766 65.5964 92.4141 65.8105 92.9746 65.8105C93.5352 65.8105 93.9704 65.5918 94.2803 65.1543C94.5947 64.7168 94.752 64.0765 94.752 63.2334C94.752 62.486 94.5902 61.8936 94.2666 61.4561C93.9476 61.0186 93.5124 60.7998 92.9609 60.7998C92.4186 60.7998 91.988 61.0163 91.6689 61.4492C91.3499 61.8776 91.1904 62.5202 91.1904 63.377ZM99.3525 59.6035L99.4004 60.458C99.9473 59.7972 100.665 59.4668 101.554 59.4668C103.094 59.4668 103.878 60.3486 103.905 62.1123V67H102.244V62.208C102.244 61.7386 102.142 61.3923 101.937 61.1689C101.736 60.9411 101.406 60.8271 100.945 60.8271C100.275 60.8271 99.7764 61.1302 99.4482 61.7363V67H97.7871V59.6035H99.3525Z" fill="#8990A5"/>
</g>
<defs>
<clipPath id="clip0_2198_1426">
<rect width="119" height="84" fill="white"/>
</clipPath>
</defs>
</svg>
