<svg width="118" height="89" viewBox="0 0 118 89" fill="none" xmlns="http://www.w3.org/2000/svg">
<path d="M63.2426 26.9403C63.2426 25.297 61.6789 23.9225 59.6062 23.6061V30.2727C61.6789 29.9563 63.2426 28.5835 63.2426 26.9403Z" fill="#8990A5"/>
<path d="M54.1516 18.4545C54.1516 20.0974 55.7152 21.4716 57.788 21.7879V15.1212C55.7171 15.4375 54.1516 16.8117 54.1516 18.4545Z" fill="#8990A5"/>
<path fill-rule="evenodd" clip-rule="evenodd" d="M39 23C39 11.9722 47.9722 3 59 3C70.0296 3 79 11.9722 79 23C79 34.0278 70.0278 43 59 43C47.9722 43 39 34.0278 39 23ZM59.8694 32.4904C62.812 32.1252 65.0868 29.9704 65.0868 27.3478C65.0868 24.7252 62.812 22.5704 59.8694 22.2052V15.2435C61.852 15.567 63.3477 16.9722 63.3477 18.6522C63.3477 19.1322 63.7372 19.5217 64.2172 19.5217C64.6972 19.5217 65.0868 19.1322 65.0868 18.6522C65.0868 16.0296 62.812 13.8748 59.8694 13.5096V12.5652C59.8694 12.0852 59.4798 11.6957 58.9998 11.6957C58.5198 11.6957 58.1303 12.0852 58.1303 12.5652V13.5078C55.1877 13.873 52.9129 16.0278 52.9129 18.6504C52.9129 21.273 55.1877 23.4278 58.1303 23.793V30.7548C56.1477 30.4313 54.652 29.0261 54.652 27.3461C54.652 26.8661 54.2625 26.4765 53.7825 26.4765C53.3025 26.4765 52.9129 26.8661 52.9129 27.3461C52.9129 29.9687 55.1877 32.1235 58.1303 32.4887V33.4348C58.1303 33.9148 58.5198 34.3043 58.9998 34.3043C59.4798 34.3043 59.8694 33.9148 59.8694 33.4348V32.4904Z" fill="#8990A5"/>
<path d="M25.873 69.5391L27.4043 62.0469H29.1201L26.8232 72H25.1689L23.2754 64.7334L21.3408 72H19.6797L17.3828 62.0469H19.0986L20.6436 69.5254L22.5439 62.0469H23.9932L25.873 69.5391ZM31.9912 72H30.3301V64.6035H31.9912V72ZM30.2275 62.6826C30.2275 62.4274 30.3073 62.2155 30.4668 62.0469C30.6309 61.8783 30.8633 61.7939 31.1641 61.7939C31.4648 61.7939 31.6973 61.8783 31.8613 62.0469C32.0254 62.2155 32.1074 62.4274 32.1074 62.6826C32.1074 62.9333 32.0254 63.1429 31.8613 63.3115C31.6973 63.4756 31.4648 63.5576 31.1641 63.5576C30.8633 63.5576 30.6309 63.4756 30.4668 63.3115C30.3073 63.1429 30.2275 62.9333 30.2275 62.6826ZM37.6787 66.1211C37.46 66.0846 37.2344 66.0664 37.002 66.0664C36.2409 66.0664 35.7282 66.3581 35.4639 66.9414V72H33.8027V64.6035H35.3887L35.4297 65.4307C35.8307 64.7881 36.3867 64.4668 37.0977 64.4668C37.3346 64.4668 37.5306 64.4987 37.6855 64.5625L37.6787 66.1211ZM41.8486 72.1367C40.7959 72.1367 39.9414 71.8063 39.2852 71.1455C38.6335 70.4801 38.3076 69.596 38.3076 68.4932V68.2881C38.3076 67.5498 38.4489 66.8913 38.7314 66.3125C39.0186 65.7292 39.4196 65.2757 39.9346 64.9521C40.4495 64.6286 41.0238 64.4668 41.6572 64.4668C42.6644 64.4668 43.4414 64.7881 43.9883 65.4307C44.5397 66.0732 44.8154 66.9824 44.8154 68.1582V68.8281H39.9824C40.0326 69.4388 40.2354 69.9219 40.5908 70.2773C40.9508 70.6328 41.402 70.8105 41.9443 70.8105C42.7054 70.8105 43.3252 70.5029 43.8037 69.8877L44.6992 70.7422C44.403 71.1842 44.0065 71.5283 43.5098 71.7744C43.0176 72.016 42.4639 72.1367 41.8486 72.1367ZM41.6504 65.7998C41.1947 65.7998 40.8255 65.9593 40.543 66.2783C40.265 66.5973 40.0872 67.0417 40.0098 67.6113H43.1748V67.4883C43.1383 66.9323 42.9902 66.513 42.7305 66.2305C42.4707 65.9434 42.1107 65.7998 41.6504 65.7998ZM56.5391 63.4414H53.4355V72H51.7197V63.4414H48.6436V62.0469H56.5391V63.4414ZM61.1123 66.1211C60.8936 66.0846 60.668 66.0664 60.4355 66.0664C59.6745 66.0664 59.1618 66.3581 58.8975 66.9414V72H57.2363V64.6035H58.8223L58.8633 65.4307C59.2643 64.7881 59.8203 64.4668 60.5312 64.4668C60.7682 64.4668 60.9642 64.4987 61.1191 64.5625L61.1123 66.1211ZM66.376 72C66.3031 71.8587 66.2393 71.6286 66.1846 71.3096C65.6559 71.861 65.0088 72.1367 64.2432 72.1367C63.5003 72.1367 62.8942 71.9248 62.4248 71.501C61.9554 71.0771 61.7207 70.5531 61.7207 69.9287C61.7207 69.1403 62.0124 68.5365 62.5957 68.1172C63.1836 67.6934 64.0221 67.4814 65.1113 67.4814H66.1299V66.9961C66.1299 66.6133 66.0228 66.3079 65.8086 66.0801C65.5944 65.8477 65.2686 65.7314 64.8311 65.7314C64.4528 65.7314 64.1429 65.8271 63.9014 66.0186C63.6598 66.2054 63.5391 66.4447 63.5391 66.7363H61.8779C61.8779 66.3307 62.0124 65.9525 62.2812 65.6016C62.5501 65.2461 62.9147 64.9681 63.375 64.7676C63.8398 64.5671 64.3571 64.4668 64.9268 64.4668C65.7926 64.4668 66.4831 64.6855 66.998 65.123C67.513 65.556 67.7773 66.1667 67.791 66.9551V70.291C67.791 70.9564 67.8844 71.4873 68.0713 71.8838V72H66.376ZM64.5508 70.8037C64.8789 70.8037 65.1865 70.724 65.4736 70.5645C65.7653 70.4049 65.984 70.1908 66.1299 69.9219V68.5273H65.2344C64.6191 68.5273 64.1566 68.6344 63.8467 68.8486C63.5368 69.0628 63.3818 69.3659 63.3818 69.7578C63.3818 70.0768 63.4867 70.332 63.6963 70.5234C63.9105 70.7103 64.1953 70.8037 64.5508 70.8037ZM71.0723 64.6035L71.1201 65.458C71.667 64.7972 72.3848 64.4668 73.2734 64.4668C74.8138 64.4668 75.5977 65.3486 75.625 67.1123V72H73.9639V67.208C73.9639 66.7386 73.8613 66.3923 73.6562 66.1689C73.4557 65.9411 73.1253 65.8271 72.665 65.8271C71.9951 65.8271 71.4961 66.1302 71.168 66.7363V72H69.5068V64.6035H71.0723ZM81.4697 69.9902C81.4697 69.694 81.3467 69.4684 81.1006 69.3135C80.859 69.1585 80.4557 69.0218 79.8906 68.9033C79.3255 68.7848 78.8538 68.6344 78.4756 68.4521C77.6462 68.0511 77.2314 67.4701 77.2314 66.709C77.2314 66.071 77.5003 65.5378 78.0381 65.1094C78.5758 64.681 79.2594 64.4668 80.0889 64.4668C80.973 64.4668 81.6862 64.6855 82.2285 65.123C82.7754 65.5605 83.0488 66.1279 83.0488 66.8252H81.3877C81.3877 66.5062 81.2692 66.2419 81.0322 66.0322C80.7952 65.818 80.4808 65.7109 80.0889 65.7109C79.7243 65.7109 79.4258 65.7952 79.1934 65.9639C78.9655 66.1325 78.8516 66.3581 78.8516 66.6406C78.8516 66.8958 78.9587 67.0941 79.1729 67.2354C79.387 67.3766 79.82 67.5202 80.4717 67.666C81.1234 67.8073 81.6338 67.9782 82.0029 68.1787C82.3766 68.3747 82.6523 68.6117 82.8301 68.8896C83.0124 69.1676 83.1035 69.5049 83.1035 69.9014C83.1035 70.5667 82.8278 71.1068 82.2764 71.5215C81.7249 71.9316 81.0026 72.1367 80.1094 72.1367C79.5033 72.1367 78.9632 72.0273 78.4893 71.8086C78.0153 71.5898 77.6462 71.2891 77.3818 70.9062C77.1175 70.5234 76.9854 70.111 76.9854 69.6689H78.5986C78.6214 70.0609 78.7695 70.3639 79.043 70.5781C79.3164 70.7878 79.6787 70.8926 80.1299 70.8926C80.5674 70.8926 80.9001 70.8105 81.1279 70.6465C81.3558 70.4779 81.4697 70.2591 81.4697 69.9902ZM85.1406 72V65.834H84.0127V64.6035H85.1406V63.9268C85.1406 63.1064 85.3685 62.473 85.8242 62.0264C86.2799 61.5798 86.918 61.3564 87.7383 61.3564C88.0299 61.3564 88.3398 61.3975 88.668 61.4795L88.627 62.7783C88.4447 62.7419 88.2327 62.7236 87.9912 62.7236C87.1982 62.7236 86.8018 63.1315 86.8018 63.9473V64.6035H88.3057V65.834H86.8018V72H85.1406ZM92.6123 72.1367C91.5596 72.1367 90.7051 71.8063 90.0488 71.1455C89.3971 70.4801 89.0713 69.596 89.0713 68.4932V68.2881C89.0713 67.5498 89.2126 66.8913 89.4951 66.3125C89.7822 65.7292 90.1833 65.2757 90.6982 64.9521C91.2132 64.6286 91.7874 64.4668 92.4209 64.4668C93.4281 64.4668 94.2051 64.7881 94.752 65.4307C95.3034 66.0732 95.5791 66.9824 95.5791 68.1582V68.8281H90.7461C90.7962 69.4388 90.999 69.9219 91.3545 70.2773C91.7145 70.6328 92.1657 70.8105 92.708 70.8105C93.4691 70.8105 94.0889 70.5029 94.5674 69.8877L95.4629 70.7422C95.1667 71.1842 94.7702 71.5283 94.2734 71.7744C93.7812 72.016 93.2275 72.1367 92.6123 72.1367ZM92.4141 65.7998C91.9583 65.7998 91.5892 65.9593 91.3066 66.2783C91.0286 66.5973 90.8509 67.0417 90.7734 67.6113H93.9385V67.4883C93.902 66.9323 93.7539 66.513 93.4941 66.2305C93.2344 65.9434 92.8743 65.7998 92.4141 65.7998ZM100.747 66.1211C100.528 66.0846 100.303 66.0664 100.07 66.0664C99.3092 66.0664 98.7965 66.3581 98.5322 66.9414V72H96.8711V64.6035H98.457L98.498 65.4307C98.8991 64.7881 99.4551 64.4668 100.166 64.4668C100.403 64.4668 100.599 64.4987 100.754 64.5625L100.747 66.1211Z" fill="#8990A5"/>
</svg>
