<svg width="34" height="38" viewBox="0 0 34 38" fill="none" xmlns="http://www.w3.org/2000/svg">
<path fill-rule="evenodd" clip-rule="evenodd" d="M18.413 34.4376H25.8371C27.3133 34.4376 28.5097 35.634 28.509 37.1094C28.509 37.6015 28.1104 38.0001 27.6183 38.0001H5.64217C5.1501 38.0001 4.75154 37.6015 4.75154 37.1094C4.75154 35.634 5.94795 34.4376 7.42416 34.4376H14.849V32.0299C11.3206 31.9074 7.82123 30.7511 4.85025 28.5453L2.86787 30.527C2.40326 30.9908 1.65143 30.9908 1.18756 30.527L0.348145 29.6883C-0.115723 29.2244 -0.115723 28.4726 0.348145 28.0087L4.73002 23.6276C4.75957 23.6614 4.78904 23.6952 4.81852 23.7291C4.99483 23.9316 5.17107 24.134 5.36311 24.326C8.05576 27.0179 11.6353 28.5001 15.4428 28.5001C19.2502 28.5001 22.8297 27.0172 25.5224 24.326C28.2151 21.6348 29.6979 18.0567 29.6979 14.2501C29.6979 10.4434 28.2151 6.86455 25.5224 4.17338C25.3399 3.99146 25.1475 3.82333 24.9553 3.65534C24.9115 3.61704 24.8677 3.57874 24.824 3.54029L28.0176 0.348145C28.4822 -0.115723 29.2341 -0.115723 29.6979 0.348145L30.5374 1.18682C31.0012 1.65068 31.0012 2.40252 30.5374 2.86639L29.7432 3.66053C34.9252 10.6326 34.37 20.5201 28.0429 26.845C25.3213 29.5666 21.9384 31.2128 18.413 31.8006V34.4376ZM15.4428 26.1251C22.0037 26.1251 27.3222 20.8088 27.3222 14.2501C27.3222 7.69506 22.0074 2.37506 15.4428 2.37506C8.88182 2.37506 3.5633 7.69135 3.5633 14.2501C3.56404 20.8043 8.87811 26.1251 15.4428 26.1251ZM15.4428 5.93756C20.0354 5.93756 23.7582 9.65889 23.7582 14.2501C23.7582 18.8412 20.0354 22.5626 15.4428 22.5626C10.8501 22.5626 7.12729 18.8412 7.12729 14.2501C7.12729 9.65889 10.8501 5.93756 15.4428 5.93756Z" fill="white"/>
</svg>
