<svg width="32" height="32" viewBox="0 0 32 32" fill="none" xmlns="http://www.w3.org/2000/svg">
<circle cx="16" cy="16" r="16" fill="#CC0000"/>
<g clip-path="url(#clip0_2198_1839)">
<path d="M15.5712 25.6L15.7856 21.4884C15.7887 21.4208 15.7766 21.3534 15.7502 21.291C15.7238 21.2287 15.6837 21.1731 15.633 21.1283C15.5823 21.0835 15.5221 21.0507 15.457 21.0322C15.3919 21.0137 15.3234 21.0101 15.2567 21.0215L11.1642 21.741L11.7169 20.2164C11.7393 20.1557 11.7422 20.0896 11.7251 20.0272C11.708 19.9648 11.6718 19.9094 11.6216 19.8686L7.13843 16.2382L8.14845 15.7666C8.21667 15.7343 8.27077 15.6783 8.30059 15.609C8.33042 15.5397 8.33392 15.4619 8.31044 15.3902L7.42428 12.665L10.0065 13.2129C10.0765 13.2275 10.1493 13.2174 10.2127 13.1844C10.2761 13.1514 10.3261 13.0975 10.3543 13.0319L10.8546 11.8551L12.8698 14.0181C12.9159 14.0667 12.9765 14.099 13.0425 14.1103C13.1086 14.1215 13.1765 14.1111 13.236 14.0805C13.2956 14.0499 13.3437 14.0008 13.373 13.9406C13.4023 13.8804 13.4113 13.8123 13.3987 13.7465L12.4268 8.7345L13.9847 9.63495C14.0213 9.65638 14.0618 9.67008 14.1039 9.67519C14.146 9.68031 14.1887 9.67672 14.2294 9.66466C14.27 9.6526 14.3077 9.63232 14.3402 9.60509C14.3727 9.57785 14.3993 9.54423 14.4182 9.50631L16 6.40001L17.5817 9.50631C17.6007 9.54423 17.6272 9.57785 17.6597 9.60509C17.6922 9.63232 17.7299 9.6526 17.7706 9.66466C17.8112 9.67672 17.8539 9.68031 17.896 9.67519C17.9381 9.67008 17.9787 9.65638 18.0153 9.63495L19.5732 8.7345L18.6013 13.7465C18.5886 13.8123 18.5976 13.8804 18.6269 13.9406C18.6563 14.0008 18.7043 14.0499 18.7639 14.0805C18.8235 14.1111 18.8914 14.1215 18.9574 14.1103C19.0234 14.099 19.084 14.0667 19.1301 14.0181L21.1454 11.8551L21.6456 13.0319C21.6738 13.0975 21.7238 13.1514 21.7872 13.1844C21.8506 13.2174 21.9235 13.2275 21.9934 13.2129L24.5756 12.665L23.6895 15.3902C23.666 15.4619 23.6695 15.5397 23.6993 15.609C23.7292 15.6783 23.7833 15.7343 23.8515 15.7666L24.8615 16.2382L20.3783 19.8686C20.3281 19.9094 20.2919 19.9648 20.2748 20.0272C20.2578 20.0896 20.2606 20.1557 20.283 20.2164L20.8357 21.741L16.7432 21.0215C16.6765 21.0101 16.608 21.0137 16.5429 21.0322C16.4778 21.0507 16.4177 21.0835 16.3669 21.1283C16.3162 21.1731 16.2761 21.2287 16.2497 21.291C16.2233 21.3534 16.2112 21.4208 16.2144 21.4884L16.4288 25.6H15.5712Z" fill="white"/>
</g>
<defs>
<clipPath id="clip0_2198_1839">
<rect width="19.2" height="19.2" fill="white" transform="translate(6.3999 6.39999)"/>
</clipPath>
</defs>
</svg>
